G04 #@! TF.GenerationSoftware,KiCad,Pcbnew,5.1.6+dfsg1-1*
G04 #@! TF.CreationDate,2020-08-30T15:38:22-05:00*
G04 #@! TF.ProjectId,no_touchy,6e6f5f74-6f75-4636-9879-2e6b69636164,rev?*
G04 #@! TF.SameCoordinates,Original*
G04 #@! TF.FileFunction,Soldermask,Top*
G04 #@! TF.FilePolarity,Negative*
%FSLAX46Y46*%
G04 Gerber Fmt 4.6, Leading zero omitted, Abs format (unit mm)*
G04 Created by KiCad (PCBNEW 5.1.6+dfsg1-1) date 2020-08-30 15:38:22*
%MOMM*%
%LPD*%
G01*
G04 APERTURE LIST*
%ADD10C,4.400000*%
G04 APERTURE END LIST*
G36*
G01*
X141350000Y-115135900D02*
X141350000Y-111664100D01*
G75*
G02*
X141614100Y-111400000I264100J0D01*
G01*
X142985900Y-111400000D01*
G75*
G02*
X143250000Y-111664100I0J-264100D01*
G01*
X143250000Y-115135900D01*
G75*
G02*
X142985900Y-115400000I-264100J0D01*
G01*
X141614100Y-115400000D01*
G75*
G02*
X141350000Y-115135900I0J264100D01*
G01*
G37*
G36*
G01*
X138400000Y-108631200D02*
X138400000Y-104568800D01*
G75*
G02*
X138668800Y-104300000I268800J0D01*
G01*
X139531200Y-104300000D01*
G75*
G02*
X139800000Y-104568800I0J-268800D01*
G01*
X139800000Y-108631200D01*
G75*
G02*
X139531200Y-108900000I-268800J0D01*
G01*
X138668800Y-108900000D01*
G75*
G02*
X138400000Y-108631200I0J268800D01*
G01*
G37*
G36*
G01*
X135900000Y-108631200D02*
X135900000Y-104568800D01*
G75*
G02*
X136168800Y-104300000I268800J0D01*
G01*
X137031200Y-104300000D01*
G75*
G02*
X137300000Y-104568800I0J-268800D01*
G01*
X137300000Y-108631200D01*
G75*
G02*
X137031200Y-108900000I-268800J0D01*
G01*
X136168800Y-108900000D01*
G75*
G02*
X135900000Y-108631200I0J268800D01*
G01*
G37*
G36*
G01*
X133400000Y-108631200D02*
X133400000Y-104568800D01*
G75*
G02*
X133668800Y-104300000I268800J0D01*
G01*
X134531200Y-104300000D01*
G75*
G02*
X134800000Y-104568800I0J-268800D01*
G01*
X134800000Y-108631200D01*
G75*
G02*
X134531200Y-108900000I-268800J0D01*
G01*
X133668800Y-108900000D01*
G75*
G02*
X133400000Y-108631200I0J268800D01*
G01*
G37*
G36*
G01*
X129950000Y-115135900D02*
X129950000Y-111664100D01*
G75*
G02*
X130214100Y-111400000I264100J0D01*
G01*
X131585900Y-111400000D01*
G75*
G02*
X131850000Y-111664100I0J-264100D01*
G01*
X131850000Y-115135900D01*
G75*
G02*
X131585900Y-115400000I-264100J0D01*
G01*
X130214100Y-115400000D01*
G75*
G02*
X129950000Y-115135900I0J264100D01*
G01*
G37*
G36*
G01*
X152400000Y-89564100D02*
X152400000Y-93035900D01*
G75*
G02*
X152135900Y-93300000I-264100J0D01*
G01*
X150764100Y-93300000D01*
G75*
G02*
X150500000Y-93035900I0J264100D01*
G01*
X150500000Y-89564100D01*
G75*
G02*
X150764100Y-89300000I264100J0D01*
G01*
X152135900Y-89300000D01*
G75*
G02*
X152400000Y-89564100I0J-264100D01*
G01*
G37*
G36*
G01*
X148950000Y-96068800D02*
X148950000Y-100131200D01*
G75*
G02*
X148681200Y-100400000I-268800J0D01*
G01*
X147818800Y-100400000D01*
G75*
G02*
X147550000Y-100131200I0J268800D01*
G01*
X147550000Y-96068800D01*
G75*
G02*
X147818800Y-95800000I268800J0D01*
G01*
X148681200Y-95800000D01*
G75*
G02*
X148950000Y-96068800I0J-268800D01*
G01*
G37*
G36*
G01*
X146450000Y-96068800D02*
X146450000Y-100131200D01*
G75*
G02*
X146181200Y-100400000I-268800J0D01*
G01*
X145318800Y-100400000D01*
G75*
G02*
X145050000Y-100131200I0J268800D01*
G01*
X145050000Y-96068800D01*
G75*
G02*
X145318800Y-95800000I268800J0D01*
G01*
X146181200Y-95800000D01*
G75*
G02*
X146450000Y-96068800I0J-268800D01*
G01*
G37*
G36*
G01*
X143950000Y-96068800D02*
X143950000Y-100131200D01*
G75*
G02*
X143681200Y-100400000I-268800J0D01*
G01*
X142818800Y-100400000D01*
G75*
G02*
X142550000Y-100131200I0J268800D01*
G01*
X142550000Y-96068800D01*
G75*
G02*
X142818800Y-95800000I268800J0D01*
G01*
X143681200Y-95800000D01*
G75*
G02*
X143950000Y-96068800I0J-268800D01*
G01*
G37*
G36*
G01*
X141000000Y-89564100D02*
X141000000Y-93035900D01*
G75*
G02*
X140735900Y-93300000I-264100J0D01*
G01*
X139364100Y-93300000D01*
G75*
G02*
X139100000Y-93035900I0J264100D01*
G01*
X139100000Y-89564100D01*
G75*
G02*
X139364100Y-89300000I264100J0D01*
G01*
X140735900Y-89300000D01*
G75*
G02*
X141000000Y-89564100I0J-264100D01*
G01*
G37*
G36*
G01*
X159650000Y-115135900D02*
X159650000Y-111664100D01*
G75*
G02*
X159914100Y-111400000I264100J0D01*
G01*
X161285900Y-111400000D01*
G75*
G02*
X161550000Y-111664100I0J-264100D01*
G01*
X161550000Y-115135900D01*
G75*
G02*
X161285900Y-115400000I-264100J0D01*
G01*
X159914100Y-115400000D01*
G75*
G02*
X159650000Y-115135900I0J264100D01*
G01*
G37*
G36*
G01*
X156700000Y-108631200D02*
X156700000Y-104568800D01*
G75*
G02*
X156968800Y-104300000I268800J0D01*
G01*
X157831200Y-104300000D01*
G75*
G02*
X158100000Y-104568800I0J-268800D01*
G01*
X158100000Y-108631200D01*
G75*
G02*
X157831200Y-108900000I-268800J0D01*
G01*
X156968800Y-108900000D01*
G75*
G02*
X156700000Y-108631200I0J268800D01*
G01*
G37*
G36*
G01*
X154200000Y-108631200D02*
X154200000Y-104568800D01*
G75*
G02*
X154468800Y-104300000I268800J0D01*
G01*
X155331200Y-104300000D01*
G75*
G02*
X155600000Y-104568800I0J-268800D01*
G01*
X155600000Y-108631200D01*
G75*
G02*
X155331200Y-108900000I-268800J0D01*
G01*
X154468800Y-108900000D01*
G75*
G02*
X154200000Y-108631200I0J268800D01*
G01*
G37*
G36*
G01*
X151700000Y-108631200D02*
X151700000Y-104568800D01*
G75*
G02*
X151968800Y-104300000I268800J0D01*
G01*
X152831200Y-104300000D01*
G75*
G02*
X153100000Y-104568800I0J-268800D01*
G01*
X153100000Y-108631200D01*
G75*
G02*
X152831200Y-108900000I-268800J0D01*
G01*
X151968800Y-108900000D01*
G75*
G02*
X151700000Y-108631200I0J268800D01*
G01*
G37*
G36*
G01*
X148250000Y-115135900D02*
X148250000Y-111664100D01*
G75*
G02*
X148514100Y-111400000I264100J0D01*
G01*
X149885900Y-111400000D01*
G75*
G02*
X150150000Y-111664100I0J-264100D01*
G01*
X150150000Y-115135900D01*
G75*
G02*
X149885900Y-115400000I-264100J0D01*
G01*
X148514100Y-115400000D01*
G75*
G02*
X148250000Y-115135900I0J264100D01*
G01*
G37*
D10*
X133750000Y-93600000D03*
X157750000Y-93600000D03*
M02*
