G04 #@! TF.GenerationSoftware,KiCad,Pcbnew,5.1.6+dfsg1-1*
G04 #@! TF.CreationDate,2020-08-30T15:38:22-05:00*
G04 #@! TF.ProjectId,no_touchy,6e6f5f74-6f75-4636-9879-2e6b69636164,rev?*
G04 #@! TF.SameCoordinates,Original*
G04 #@! TF.FileFunction,Legend,Bot*
G04 #@! TF.FilePolarity,Positive*
%FSLAX46Y46*%
G04 Gerber Fmt 4.6, Leading zero omitted, Abs format (unit mm)*
G04 Created by KiCad (PCBNEW 5.1.6+dfsg1-1) date 2020-08-30 15:38:22*
%MOMM*%
%LPD*%
G01*
G04 APERTURE LIST*
%ADD10C,0.150000*%
G04 APERTURE END LIST*
D10*
X152216666Y-103878571D02*
X151883333Y-103878571D01*
X151740476Y-104402380D02*
X152216666Y-104402380D01*
X152216666Y-103402380D01*
X151740476Y-103402380D01*
X151311904Y-104402380D02*
X151311904Y-103402380D01*
X151073809Y-103402380D01*
X150930952Y-103450000D01*
X150835714Y-103545238D01*
X150788095Y-103640476D01*
X150740476Y-103830952D01*
X150740476Y-103973809D01*
X150788095Y-104164285D01*
X150835714Y-104259523D01*
X150930952Y-104354761D01*
X151073809Y-104402380D01*
X151311904Y-104402380D01*
X149550000Y-104402380D02*
X149550000Y-103402380D01*
X149169047Y-103402380D01*
X149073809Y-103450000D01*
X149026190Y-103497619D01*
X148978571Y-103592857D01*
X148978571Y-103735714D01*
X149026190Y-103830952D01*
X149073809Y-103878571D01*
X149169047Y-103926190D01*
X149550000Y-103926190D01*
X148550000Y-103878571D02*
X148216666Y-103878571D01*
X148073809Y-104402380D02*
X148550000Y-104402380D01*
X148550000Y-103402380D01*
X148073809Y-103402380D01*
X147121428Y-103450000D02*
X147216666Y-103402380D01*
X147359523Y-103402380D01*
X147502380Y-103450000D01*
X147597619Y-103545238D01*
X147645238Y-103640476D01*
X147692857Y-103830952D01*
X147692857Y-103973809D01*
X147645238Y-104164285D01*
X147597619Y-104259523D01*
X147502380Y-104354761D01*
X147359523Y-104402380D01*
X147264285Y-104402380D01*
X147121428Y-104354761D01*
X147073809Y-104307142D01*
X147073809Y-103973809D01*
X147264285Y-103973809D01*
X146645238Y-103402380D02*
X146645238Y-104211904D01*
X146597619Y-104307142D01*
X146550000Y-104354761D01*
X146454761Y-104402380D01*
X146264285Y-104402380D01*
X146169047Y-104354761D01*
X146121428Y-104307142D01*
X146073809Y-104211904D01*
X146073809Y-103402380D01*
X145597619Y-104402380D02*
X145597619Y-103402380D01*
X144645238Y-104402380D02*
X145121428Y-104402380D01*
X145121428Y-103402380D01*
X143835714Y-104402380D02*
X144311904Y-104402380D01*
X144311904Y-103402380D01*
X143550000Y-104116666D02*
X143073809Y-104116666D01*
X143645238Y-104402380D02*
X143311904Y-103402380D01*
X142978571Y-104402380D01*
X142645238Y-104402380D02*
X142645238Y-103402380D01*
X142073809Y-104402380D01*
X142073809Y-103402380D01*
X140835714Y-104402380D02*
X140835714Y-103402380D01*
X140359523Y-104402380D02*
X140359523Y-103402380D01*
X139883333Y-104402380D02*
X139883333Y-103402380D01*
X156430952Y-105576190D02*
X156430952Y-106052380D01*
X156764285Y-105052380D02*
X156430952Y-105576190D01*
X156097619Y-105052380D01*
X155811904Y-105766666D02*
X155335714Y-105766666D01*
X155907142Y-106052380D02*
X155573809Y-105052380D01*
X155240476Y-106052380D01*
X154907142Y-106052380D02*
X154907142Y-105052380D01*
X154335714Y-106052380D01*
X154335714Y-105052380D01*
X153859523Y-106052380D02*
X153859523Y-105052380D01*
X153288095Y-106052380D02*
X153716666Y-105480952D01*
X153288095Y-105052380D02*
X153859523Y-105623809D01*
X152859523Y-105528571D02*
X152526190Y-105528571D01*
X152383333Y-106052380D02*
X152859523Y-106052380D01*
X152859523Y-105052380D01*
X152383333Y-105052380D01*
X151954761Y-105528571D02*
X151621428Y-105528571D01*
X151478571Y-106052380D02*
X151954761Y-106052380D01*
X151954761Y-105052380D01*
X151478571Y-105052380D01*
X150526190Y-106052380D02*
X151097619Y-106052380D01*
X150811904Y-106052380D02*
X150811904Y-105052380D01*
X150907142Y-105195238D01*
X151002380Y-105290476D01*
X151097619Y-105338095D01*
X149669047Y-105385714D02*
X149669047Y-106052380D01*
X149907142Y-105004761D02*
X150145238Y-105719047D01*
X149526190Y-105719047D01*
X148526190Y-105576190D02*
X148573809Y-105528571D01*
X148669047Y-105480952D01*
X148764285Y-105480952D01*
X148859523Y-105528571D01*
X148907142Y-105576190D01*
X148954761Y-105671428D01*
X148954761Y-105766666D01*
X148907142Y-105861904D01*
X148859523Y-105909523D01*
X148764285Y-105957142D01*
X148669047Y-105957142D01*
X148573809Y-105909523D01*
X148526190Y-105861904D01*
X148526190Y-105480952D02*
X148526190Y-105861904D01*
X148478571Y-105909523D01*
X148430952Y-105909523D01*
X148335714Y-105861904D01*
X148288095Y-105766666D01*
X148288095Y-105528571D01*
X148383333Y-105385714D01*
X148526190Y-105290476D01*
X148716666Y-105242857D01*
X148907142Y-105290476D01*
X149050000Y-105385714D01*
X149145238Y-105528571D01*
X149192857Y-105719047D01*
X149145238Y-105909523D01*
X149050000Y-106052380D01*
X148907142Y-106147619D01*
X148716666Y-106195238D01*
X148526190Y-106147619D01*
X148383333Y-106052380D01*
X147859523Y-106052380D02*
X147859523Y-105052380D01*
X147478571Y-105052380D01*
X147383333Y-105100000D01*
X147335714Y-105147619D01*
X147288095Y-105242857D01*
X147288095Y-105385714D01*
X147335714Y-105480952D01*
X147383333Y-105528571D01*
X147478571Y-105576190D01*
X147859523Y-105576190D01*
X146288095Y-106052380D02*
X146621428Y-105576190D01*
X146859523Y-106052380D02*
X146859523Y-105052380D01*
X146478571Y-105052380D01*
X146383333Y-105100000D01*
X146335714Y-105147619D01*
X146288095Y-105242857D01*
X146288095Y-105385714D01*
X146335714Y-105480952D01*
X146383333Y-105528571D01*
X146478571Y-105576190D01*
X146859523Y-105576190D01*
X145669047Y-105052380D02*
X145478571Y-105052380D01*
X145383333Y-105100000D01*
X145288095Y-105195238D01*
X145240476Y-105385714D01*
X145240476Y-105719047D01*
X145288095Y-105909523D01*
X145383333Y-106004761D01*
X145478571Y-106052380D01*
X145669047Y-106052380D01*
X145764285Y-106004761D01*
X145859523Y-105909523D01*
X145907142Y-105719047D01*
X145907142Y-105385714D01*
X145859523Y-105195238D01*
X145764285Y-105100000D01*
X145669047Y-105052380D01*
X144954761Y-105052380D02*
X144383333Y-105052380D01*
X144669047Y-106052380D02*
X144669047Y-105052380D01*
X143859523Y-105052380D02*
X143669047Y-105052380D01*
X143573809Y-105100000D01*
X143478571Y-105195238D01*
X143430952Y-105385714D01*
X143430952Y-105719047D01*
X143478571Y-105909523D01*
X143573809Y-106004761D01*
X143669047Y-106052380D01*
X143859523Y-106052380D01*
X143954761Y-106004761D01*
X144050000Y-105909523D01*
X144097619Y-105719047D01*
X144097619Y-105385714D01*
X144050000Y-105195238D01*
X143954761Y-105100000D01*
X143859523Y-105052380D01*
X143002380Y-106052380D02*
X143002380Y-105052380D01*
X142430952Y-106052380D01*
X142430952Y-105052380D01*
X141954761Y-106052380D02*
X141954761Y-105052380D01*
X141621428Y-105766666D01*
X141288095Y-105052380D01*
X141288095Y-106052380D01*
X140859523Y-105766666D02*
X140383333Y-105766666D01*
X140954761Y-106052380D02*
X140621428Y-105052380D01*
X140288095Y-106052380D01*
X139954761Y-106052380D02*
X139954761Y-105052380D01*
X139002380Y-106052380D02*
X139478571Y-106052380D01*
X139478571Y-105052380D01*
X138669047Y-105957142D02*
X138621428Y-106004761D01*
X138669047Y-106052380D01*
X138716666Y-106004761D01*
X138669047Y-105957142D01*
X138669047Y-106052380D01*
X137621428Y-105957142D02*
X137669047Y-106004761D01*
X137811904Y-106052380D01*
X137907142Y-106052380D01*
X138050000Y-106004761D01*
X138145238Y-105909523D01*
X138192857Y-105814285D01*
X138240476Y-105623809D01*
X138240476Y-105480952D01*
X138192857Y-105290476D01*
X138145238Y-105195238D01*
X138050000Y-105100000D01*
X137907142Y-105052380D01*
X137811904Y-105052380D01*
X137669047Y-105100000D01*
X137621428Y-105147619D01*
X137002380Y-105052380D02*
X136811904Y-105052380D01*
X136716666Y-105100000D01*
X136621428Y-105195238D01*
X136573809Y-105385714D01*
X136573809Y-105719047D01*
X136621428Y-105909523D01*
X136716666Y-106004761D01*
X136811904Y-106052380D01*
X137002380Y-106052380D01*
X137097619Y-106004761D01*
X137192857Y-105909523D01*
X137240476Y-105719047D01*
X137240476Y-105385714D01*
X137192857Y-105195238D01*
X137097619Y-105100000D01*
X137002380Y-105052380D01*
X136145238Y-106052380D02*
X136145238Y-105052380D01*
X135811904Y-105766666D01*
X135478571Y-105052380D01*
X135478571Y-106052380D01*
X153526190Y-107321428D02*
X152764285Y-107321428D01*
X153145238Y-107702380D02*
X153145238Y-106940476D01*
X151764285Y-107702380D02*
X152335714Y-107702380D01*
X152050000Y-107702380D02*
X152050000Y-106702380D01*
X152145238Y-106845238D01*
X152240476Y-106940476D01*
X152335714Y-106988095D01*
X151335714Y-107321428D02*
X150573809Y-107321428D01*
X149669047Y-107035714D02*
X149669047Y-107702380D01*
X149907142Y-106654761D02*
X150145238Y-107369047D01*
X149526190Y-107369047D01*
X148954761Y-106702380D02*
X148859523Y-106702380D01*
X148764285Y-106750000D01*
X148716666Y-106797619D01*
X148669047Y-106892857D01*
X148621428Y-107083333D01*
X148621428Y-107321428D01*
X148669047Y-107511904D01*
X148716666Y-107607142D01*
X148764285Y-107654761D01*
X148859523Y-107702380D01*
X148954761Y-107702380D01*
X149050000Y-107654761D01*
X149097619Y-107607142D01*
X149145238Y-107511904D01*
X149192857Y-107321428D01*
X149192857Y-107083333D01*
X149145238Y-106892857D01*
X149097619Y-106797619D01*
X149050000Y-106750000D01*
X148954761Y-106702380D01*
X147716666Y-106702380D02*
X148192857Y-106702380D01*
X148240476Y-107178571D01*
X148192857Y-107130952D01*
X148097619Y-107083333D01*
X147859523Y-107083333D01*
X147764285Y-107130952D01*
X147716666Y-107178571D01*
X147669047Y-107273809D01*
X147669047Y-107511904D01*
X147716666Y-107607142D01*
X147764285Y-107654761D01*
X147859523Y-107702380D01*
X148097619Y-107702380D01*
X148192857Y-107654761D01*
X148240476Y-107607142D01*
X147240476Y-107321428D02*
X146478571Y-107321428D01*
X145573809Y-106702380D02*
X145764285Y-106702380D01*
X145859523Y-106750000D01*
X145907142Y-106797619D01*
X146002380Y-106940476D01*
X146050000Y-107130952D01*
X146050000Y-107511904D01*
X146002380Y-107607142D01*
X145954761Y-107654761D01*
X145859523Y-107702380D01*
X145669047Y-107702380D01*
X145573809Y-107654761D01*
X145526190Y-107607142D01*
X145478571Y-107511904D01*
X145478571Y-107273809D01*
X145526190Y-107178571D01*
X145573809Y-107130952D01*
X145669047Y-107083333D01*
X145859523Y-107083333D01*
X145954761Y-107130952D01*
X146002380Y-107178571D01*
X146050000Y-107273809D01*
X144859523Y-106702380D02*
X144764285Y-106702380D01*
X144669047Y-106750000D01*
X144621428Y-106797619D01*
X144573809Y-106892857D01*
X144526190Y-107083333D01*
X144526190Y-107321428D01*
X144573809Y-107511904D01*
X144621428Y-107607142D01*
X144669047Y-107654761D01*
X144764285Y-107702380D01*
X144859523Y-107702380D01*
X144954761Y-107654761D01*
X145002380Y-107607142D01*
X145050000Y-107511904D01*
X145097619Y-107321428D01*
X145097619Y-107083333D01*
X145050000Y-106892857D01*
X145002380Y-106797619D01*
X144954761Y-106750000D01*
X144859523Y-106702380D01*
X143907142Y-106702380D02*
X143811904Y-106702380D01*
X143716666Y-106750000D01*
X143669047Y-106797619D01*
X143621428Y-106892857D01*
X143573809Y-107083333D01*
X143573809Y-107321428D01*
X143621428Y-107511904D01*
X143669047Y-107607142D01*
X143716666Y-107654761D01*
X143811904Y-107702380D01*
X143907142Y-107702380D01*
X144002380Y-107654761D01*
X144050000Y-107607142D01*
X144097619Y-107511904D01*
X144145238Y-107321428D01*
X144145238Y-107083333D01*
X144097619Y-106892857D01*
X144050000Y-106797619D01*
X144002380Y-106750000D01*
X143907142Y-106702380D01*
X143145238Y-107321428D02*
X142383333Y-107321428D01*
X141478571Y-107035714D02*
X141478571Y-107702380D01*
X141716666Y-106654761D02*
X141954761Y-107369047D01*
X141335714Y-107369047D01*
X140526190Y-107035714D02*
X140526190Y-107702380D01*
X140764285Y-106654761D02*
X141002380Y-107369047D01*
X140383333Y-107369047D01*
X140050000Y-106797619D02*
X140002380Y-106750000D01*
X139907142Y-106702380D01*
X139669047Y-106702380D01*
X139573809Y-106750000D01*
X139526190Y-106797619D01*
X139478571Y-106892857D01*
X139478571Y-106988095D01*
X139526190Y-107130952D01*
X140097619Y-107702380D01*
X139478571Y-107702380D01*
X138621428Y-106702380D02*
X138811904Y-106702380D01*
X138907142Y-106750000D01*
X138954761Y-106797619D01*
X139050000Y-106940476D01*
X139097619Y-107130952D01*
X139097619Y-107511904D01*
X139050000Y-107607142D01*
X139002380Y-107654761D01*
X138907142Y-107702380D01*
X138716666Y-107702380D01*
X138621428Y-107654761D01*
X138573809Y-107607142D01*
X138526190Y-107511904D01*
X138526190Y-107273809D01*
X138573809Y-107178571D01*
X138621428Y-107130952D01*
X138716666Y-107083333D01*
X138907142Y-107083333D01*
X139002380Y-107130952D01*
X139050000Y-107178571D01*
X139097619Y-107273809D01*
X152257142Y-102802380D02*
X152257142Y-101802380D01*
X151685714Y-102802380D01*
X151685714Y-101802380D01*
X151019047Y-101802380D02*
X150828571Y-101802380D01*
X150733333Y-101850000D01*
X150638095Y-101945238D01*
X150590476Y-102135714D01*
X150590476Y-102469047D01*
X150638095Y-102659523D01*
X150733333Y-102754761D01*
X150828571Y-102802380D01*
X151019047Y-102802380D01*
X151114285Y-102754761D01*
X151209523Y-102659523D01*
X151257142Y-102469047D01*
X151257142Y-102135714D01*
X151209523Y-101945238D01*
X151114285Y-101850000D01*
X151019047Y-101802380D01*
X149542857Y-101802380D02*
X148971428Y-101802380D01*
X149257142Y-102802380D02*
X149257142Y-101802380D01*
X148447619Y-101802380D02*
X148257142Y-101802380D01*
X148161904Y-101850000D01*
X148066666Y-101945238D01*
X148019047Y-102135714D01*
X148019047Y-102469047D01*
X148066666Y-102659523D01*
X148161904Y-102754761D01*
X148257142Y-102802380D01*
X148447619Y-102802380D01*
X148542857Y-102754761D01*
X148638095Y-102659523D01*
X148685714Y-102469047D01*
X148685714Y-102135714D01*
X148638095Y-101945238D01*
X148542857Y-101850000D01*
X148447619Y-101802380D01*
X147590476Y-101802380D02*
X147590476Y-102611904D01*
X147542857Y-102707142D01*
X147495238Y-102754761D01*
X147400000Y-102802380D01*
X147209523Y-102802380D01*
X147114285Y-102754761D01*
X147066666Y-102707142D01*
X147019047Y-102611904D01*
X147019047Y-101802380D01*
X145971428Y-102707142D02*
X146019047Y-102754761D01*
X146161904Y-102802380D01*
X146257142Y-102802380D01*
X146400000Y-102754761D01*
X146495238Y-102659523D01*
X146542857Y-102564285D01*
X146590476Y-102373809D01*
X146590476Y-102230952D01*
X146542857Y-102040476D01*
X146495238Y-101945238D01*
X146400000Y-101850000D01*
X146257142Y-101802380D01*
X146161904Y-101802380D01*
X146019047Y-101850000D01*
X145971428Y-101897619D01*
X145542857Y-102802380D02*
X145542857Y-101802380D01*
X145542857Y-102278571D02*
X144971428Y-102278571D01*
X144971428Y-102802380D02*
X144971428Y-101802380D01*
X144304761Y-102326190D02*
X144304761Y-102802380D01*
X144638095Y-101802380D02*
X144304761Y-102326190D01*
X143971428Y-101802380D01*
X142304761Y-102802380D02*
X142638095Y-102326190D01*
X142876190Y-102802380D02*
X142876190Y-101802380D01*
X142495238Y-101802380D01*
X142400000Y-101850000D01*
X142352380Y-101897619D01*
X142304761Y-101992857D01*
X142304761Y-102135714D01*
X142352380Y-102230952D01*
X142400000Y-102278571D01*
X142495238Y-102326190D01*
X142876190Y-102326190D01*
X141685714Y-101802380D02*
X141590476Y-101802380D01*
X141495238Y-101850000D01*
X141447619Y-101897619D01*
X141400000Y-101992857D01*
X141352380Y-102183333D01*
X141352380Y-102421428D01*
X141400000Y-102611904D01*
X141447619Y-102707142D01*
X141495238Y-102754761D01*
X141590476Y-102802380D01*
X141685714Y-102802380D01*
X141780952Y-102754761D01*
X141828571Y-102707142D01*
X141876190Y-102611904D01*
X141923809Y-102421428D01*
X141923809Y-102183333D01*
X141876190Y-101992857D01*
X141828571Y-101897619D01*
X141780952Y-101850000D01*
X141685714Y-101802380D01*
X140495238Y-102802380D02*
X140495238Y-102278571D01*
X140542857Y-102183333D01*
X140638095Y-102135714D01*
X140828571Y-102135714D01*
X140923809Y-102183333D01*
X140495238Y-102754761D02*
X140590476Y-102802380D01*
X140828571Y-102802380D01*
X140923809Y-102754761D01*
X140971428Y-102659523D01*
X140971428Y-102564285D01*
X140923809Y-102469047D01*
X140828571Y-102421428D01*
X140590476Y-102421428D01*
X140495238Y-102373809D01*
X139495238Y-102802380D02*
X140066666Y-102802380D01*
X139780952Y-102802380D02*
X139780952Y-101802380D01*
X139876190Y-101945238D01*
X139971428Y-102040476D01*
X140066666Y-102088095D01*
M02*
