G04 #@! TF.GenerationSoftware,KiCad,Pcbnew,5.1.6+dfsg1-1*
G04 #@! TF.CreationDate,2020-08-30T15:38:22-05:00*
G04 #@! TF.ProjectId,no_touchy,6e6f5f74-6f75-4636-9879-2e6b69636164,rev?*
G04 #@! TF.SameCoordinates,Original*
G04 #@! TF.FileFunction,Legend,Top*
G04 #@! TF.FilePolarity,Positive*
%FSLAX46Y46*%
G04 Gerber Fmt 4.6, Leading zero omitted, Abs format (unit mm)*
G04 Created by KiCad (PCBNEW 5.1.6+dfsg1-1) date 2020-08-30 15:38:22*
%MOMM*%
%LPD*%
G01*
G04 APERTURE LIST*
%ADD10C,0.150000*%
%ADD11C,0.120000*%
G04 APERTURE END LIST*
D10*
X139542857Y-102802380D02*
X139542857Y-101802380D01*
X140114285Y-102802380D01*
X140114285Y-101802380D01*
X140780952Y-101802380D02*
X140971428Y-101802380D01*
X141066666Y-101850000D01*
X141161904Y-101945238D01*
X141209523Y-102135714D01*
X141209523Y-102469047D01*
X141161904Y-102659523D01*
X141066666Y-102754761D01*
X140971428Y-102802380D01*
X140780952Y-102802380D01*
X140685714Y-102754761D01*
X140590476Y-102659523D01*
X140542857Y-102469047D01*
X140542857Y-102135714D01*
X140590476Y-101945238D01*
X140685714Y-101850000D01*
X140780952Y-101802380D01*
X142257142Y-101802380D02*
X142828571Y-101802380D01*
X142542857Y-102802380D02*
X142542857Y-101802380D01*
X143352380Y-101802380D02*
X143542857Y-101802380D01*
X143638095Y-101850000D01*
X143733333Y-101945238D01*
X143780952Y-102135714D01*
X143780952Y-102469047D01*
X143733333Y-102659523D01*
X143638095Y-102754761D01*
X143542857Y-102802380D01*
X143352380Y-102802380D01*
X143257142Y-102754761D01*
X143161904Y-102659523D01*
X143114285Y-102469047D01*
X143114285Y-102135714D01*
X143161904Y-101945238D01*
X143257142Y-101850000D01*
X143352380Y-101802380D01*
X144209523Y-101802380D02*
X144209523Y-102611904D01*
X144257142Y-102707142D01*
X144304761Y-102754761D01*
X144400000Y-102802380D01*
X144590476Y-102802380D01*
X144685714Y-102754761D01*
X144733333Y-102707142D01*
X144780952Y-102611904D01*
X144780952Y-101802380D01*
X145828571Y-102707142D02*
X145780952Y-102754761D01*
X145638095Y-102802380D01*
X145542857Y-102802380D01*
X145400000Y-102754761D01*
X145304761Y-102659523D01*
X145257142Y-102564285D01*
X145209523Y-102373809D01*
X145209523Y-102230952D01*
X145257142Y-102040476D01*
X145304761Y-101945238D01*
X145400000Y-101850000D01*
X145542857Y-101802380D01*
X145638095Y-101802380D01*
X145780952Y-101850000D01*
X145828571Y-101897619D01*
X146257142Y-102802380D02*
X146257142Y-101802380D01*
X146257142Y-102278571D02*
X146828571Y-102278571D01*
X146828571Y-102802380D02*
X146828571Y-101802380D01*
X147495238Y-102326190D02*
X147495238Y-102802380D01*
X147161904Y-101802380D02*
X147495238Y-102326190D01*
X147828571Y-101802380D01*
X149495238Y-102802380D02*
X149161904Y-102326190D01*
X148923809Y-102802380D02*
X148923809Y-101802380D01*
X149304761Y-101802380D01*
X149400000Y-101850000D01*
X149447619Y-101897619D01*
X149495238Y-101992857D01*
X149495238Y-102135714D01*
X149447619Y-102230952D01*
X149400000Y-102278571D01*
X149304761Y-102326190D01*
X148923809Y-102326190D01*
X150114285Y-101802380D02*
X150209523Y-101802380D01*
X150304761Y-101850000D01*
X150352380Y-101897619D01*
X150400000Y-101992857D01*
X150447619Y-102183333D01*
X150447619Y-102421428D01*
X150400000Y-102611904D01*
X150352380Y-102707142D01*
X150304761Y-102754761D01*
X150209523Y-102802380D01*
X150114285Y-102802380D01*
X150019047Y-102754761D01*
X149971428Y-102707142D01*
X149923809Y-102611904D01*
X149876190Y-102421428D01*
X149876190Y-102183333D01*
X149923809Y-101992857D01*
X149971428Y-101897619D01*
X150019047Y-101850000D01*
X150114285Y-101802380D01*
X151304761Y-102802380D02*
X151304761Y-102278571D01*
X151257142Y-102183333D01*
X151161904Y-102135714D01*
X150971428Y-102135714D01*
X150876190Y-102183333D01*
X151304761Y-102754761D02*
X151209523Y-102802380D01*
X150971428Y-102802380D01*
X150876190Y-102754761D01*
X150828571Y-102659523D01*
X150828571Y-102564285D01*
X150876190Y-102469047D01*
X150971428Y-102421428D01*
X151209523Y-102421428D01*
X151304761Y-102373809D01*
X152304761Y-102802380D02*
X151733333Y-102802380D01*
X152019047Y-102802380D02*
X152019047Y-101802380D01*
X151923809Y-101945238D01*
X151828571Y-102040476D01*
X151733333Y-102088095D01*
D11*
X140000000Y-107000000D02*
X142950000Y-107000000D01*
X142950000Y-107000000D02*
X142950000Y-111000000D01*
X133200000Y-107000000D02*
X133200000Y-105900000D01*
X130250000Y-107000000D02*
X133200000Y-107000000D01*
X130250000Y-107000000D02*
X130250000Y-111000000D01*
X132600000Y-115200000D02*
X140600000Y-115200000D01*
X149750000Y-89500000D02*
X141750000Y-89500000D01*
X152100000Y-97700000D02*
X152100000Y-93700000D01*
X152100000Y-97700000D02*
X149150000Y-97700000D01*
X149150000Y-97700000D02*
X149150000Y-98800000D01*
X139400000Y-97700000D02*
X139400000Y-93700000D01*
X142350000Y-97700000D02*
X139400000Y-97700000D01*
X158300000Y-107000000D02*
X161250000Y-107000000D01*
X161250000Y-107000000D02*
X161250000Y-111000000D01*
X151500000Y-107000000D02*
X151500000Y-105900000D01*
X148550000Y-107000000D02*
X151500000Y-107000000D01*
X148550000Y-107000000D02*
X148550000Y-111000000D01*
X150900000Y-115200000D02*
X158900000Y-115200000D01*
D10*
X131016666Y-105002380D02*
X131016666Y-105716666D01*
X130969047Y-105859523D01*
X130873809Y-105954761D01*
X130730952Y-106002380D01*
X130635714Y-106002380D01*
X131397619Y-105002380D02*
X132016666Y-105002380D01*
X131683333Y-105383333D01*
X131826190Y-105383333D01*
X131921428Y-105430952D01*
X131969047Y-105478571D01*
X132016666Y-105573809D01*
X132016666Y-105811904D01*
X131969047Y-105907142D01*
X131921428Y-105954761D01*
X131826190Y-106002380D01*
X131540476Y-106002380D01*
X131445238Y-105954761D01*
X131397619Y-105907142D01*
X139516666Y-99452380D02*
X139516666Y-100166666D01*
X139469047Y-100309523D01*
X139373809Y-100404761D01*
X139230952Y-100452380D01*
X139135714Y-100452380D01*
X139945238Y-99547619D02*
X139992857Y-99500000D01*
X140088095Y-99452380D01*
X140326190Y-99452380D01*
X140421428Y-99500000D01*
X140469047Y-99547619D01*
X140516666Y-99642857D01*
X140516666Y-99738095D01*
X140469047Y-99880952D01*
X139897619Y-100452380D01*
X140516666Y-100452380D01*
X159916666Y-105102380D02*
X159916666Y-105816666D01*
X159869047Y-105959523D01*
X159773809Y-106054761D01*
X159630952Y-106102380D01*
X159535714Y-106102380D01*
X160916666Y-106102380D02*
X160345238Y-106102380D01*
X160630952Y-106102380D02*
X160630952Y-105102380D01*
X160535714Y-105245238D01*
X160440476Y-105340476D01*
X160345238Y-105388095D01*
X129938095Y-98952380D02*
X129938095Y-97952380D01*
X129938095Y-98428571D02*
X130509523Y-98428571D01*
X130509523Y-98952380D02*
X130509523Y-97952380D01*
X131509523Y-98952380D02*
X130938095Y-98952380D01*
X131223809Y-98952380D02*
X131223809Y-97952380D01*
X131128571Y-98095238D01*
X131033333Y-98190476D01*
X130938095Y-98238095D01*
X159738095Y-98952380D02*
X159738095Y-97952380D01*
X159738095Y-98428571D02*
X160309523Y-98428571D01*
X160309523Y-98952380D02*
X160309523Y-97952380D01*
X160738095Y-98047619D02*
X160785714Y-98000000D01*
X160880952Y-97952380D01*
X161119047Y-97952380D01*
X161214285Y-98000000D01*
X161261904Y-98047619D01*
X161309523Y-98142857D01*
X161309523Y-98238095D01*
X161261904Y-98380952D01*
X160690476Y-98952380D01*
X161309523Y-98952380D01*
M02*
