G04 #@! TF.GenerationSoftware,KiCad,Pcbnew,5.1.6+dfsg1-1*
G04 #@! TF.CreationDate,2020-08-30T15:38:22-05:00*
G04 #@! TF.ProjectId,no_touchy,6e6f5f74-6f75-4636-9879-2e6b69636164,rev?*
G04 #@! TF.SameCoordinates,Original*
G04 #@! TF.FileFunction,Copper,L1,Top*
G04 #@! TF.FilePolarity,Positive*
%FSLAX46Y46*%
G04 Gerber Fmt 4.6, Leading zero omitted, Abs format (unit mm)*
G04 Created by KiCad (PCBNEW 5.1.6+dfsg1-1) date 2020-08-30 15:38:22*
%MOMM*%
%LPD*%
G01*
G04 APERTURE LIST*
G04 #@! TA.AperFunction,Conductor*
%ADD10C,1.000000*%
G04 #@! TD*
G04 APERTURE END LIST*
G04 #@! TA.AperFunction,SMDPad,CuDef*
G36*
G01*
X141400000Y-115099800D02*
X141400000Y-111700200D01*
G75*
G02*
X141650200Y-111450000I250200J0D01*
G01*
X142949800Y-111450000D01*
G75*
G02*
X143200000Y-111700200I0J-250200D01*
G01*
X143200000Y-115099800D01*
G75*
G02*
X142949800Y-115350000I-250200J0D01*
G01*
X141650200Y-115350000D01*
G75*
G02*
X141400000Y-115099800I0J250200D01*
G01*
G37*
G04 #@! TD.AperFunction*
G04 #@! TA.AperFunction,SMDPad,CuDef*
G36*
G01*
X138450000Y-108600400D02*
X138450000Y-104599600D01*
G75*
G02*
X138699600Y-104350000I249600J0D01*
G01*
X139500400Y-104350000D01*
G75*
G02*
X139750000Y-104599600I0J-249600D01*
G01*
X139750000Y-108600400D01*
G75*
G02*
X139500400Y-108850000I-249600J0D01*
G01*
X138699600Y-108850000D01*
G75*
G02*
X138450000Y-108600400I0J249600D01*
G01*
G37*
G04 #@! TD.AperFunction*
G04 #@! TA.AperFunction,SMDPad,CuDef*
G36*
G01*
X135950000Y-108600400D02*
X135950000Y-104599600D01*
G75*
G02*
X136199600Y-104350000I249600J0D01*
G01*
X137000400Y-104350000D01*
G75*
G02*
X137250000Y-104599600I0J-249600D01*
G01*
X137250000Y-108600400D01*
G75*
G02*
X137000400Y-108850000I-249600J0D01*
G01*
X136199600Y-108850000D01*
G75*
G02*
X135950000Y-108600400I0J249600D01*
G01*
G37*
G04 #@! TD.AperFunction*
G04 #@! TA.AperFunction,SMDPad,CuDef*
G36*
G01*
X133450000Y-108600400D02*
X133450000Y-104599600D01*
G75*
G02*
X133699600Y-104350000I249600J0D01*
G01*
X134500400Y-104350000D01*
G75*
G02*
X134750000Y-104599600I0J-249600D01*
G01*
X134750000Y-108600400D01*
G75*
G02*
X134500400Y-108850000I-249600J0D01*
G01*
X133699600Y-108850000D01*
G75*
G02*
X133450000Y-108600400I0J249600D01*
G01*
G37*
G04 #@! TD.AperFunction*
G04 #@! TA.AperFunction,SMDPad,CuDef*
G36*
G01*
X130000000Y-115099800D02*
X130000000Y-111700200D01*
G75*
G02*
X130250200Y-111450000I250200J0D01*
G01*
X131549800Y-111450000D01*
G75*
G02*
X131800000Y-111700200I0J-250200D01*
G01*
X131800000Y-115099800D01*
G75*
G02*
X131549800Y-115350000I-250200J0D01*
G01*
X130250200Y-115350000D01*
G75*
G02*
X130000000Y-115099800I0J250200D01*
G01*
G37*
G04 #@! TD.AperFunction*
G04 #@! TA.AperFunction,SMDPad,CuDef*
G36*
G01*
X152350000Y-89600200D02*
X152350000Y-92999800D01*
G75*
G02*
X152099800Y-93250000I-250200J0D01*
G01*
X150800200Y-93250000D01*
G75*
G02*
X150550000Y-92999800I0J250200D01*
G01*
X150550000Y-89600200D01*
G75*
G02*
X150800200Y-89350000I250200J0D01*
G01*
X152099800Y-89350000D01*
G75*
G02*
X152350000Y-89600200I0J-250200D01*
G01*
G37*
G04 #@! TD.AperFunction*
G04 #@! TA.AperFunction,SMDPad,CuDef*
G36*
G01*
X148900000Y-96099600D02*
X148900000Y-100100400D01*
G75*
G02*
X148650400Y-100350000I-249600J0D01*
G01*
X147849600Y-100350000D01*
G75*
G02*
X147600000Y-100100400I0J249600D01*
G01*
X147600000Y-96099600D01*
G75*
G02*
X147849600Y-95850000I249600J0D01*
G01*
X148650400Y-95850000D01*
G75*
G02*
X148900000Y-96099600I0J-249600D01*
G01*
G37*
G04 #@! TD.AperFunction*
G04 #@! TA.AperFunction,SMDPad,CuDef*
G36*
G01*
X146400000Y-96099600D02*
X146400000Y-100100400D01*
G75*
G02*
X146150400Y-100350000I-249600J0D01*
G01*
X145349600Y-100350000D01*
G75*
G02*
X145100000Y-100100400I0J249600D01*
G01*
X145100000Y-96099600D01*
G75*
G02*
X145349600Y-95850000I249600J0D01*
G01*
X146150400Y-95850000D01*
G75*
G02*
X146400000Y-96099600I0J-249600D01*
G01*
G37*
G04 #@! TD.AperFunction*
G04 #@! TA.AperFunction,SMDPad,CuDef*
G36*
G01*
X143900000Y-96099600D02*
X143900000Y-100100400D01*
G75*
G02*
X143650400Y-100350000I-249600J0D01*
G01*
X142849600Y-100350000D01*
G75*
G02*
X142600000Y-100100400I0J249600D01*
G01*
X142600000Y-96099600D01*
G75*
G02*
X142849600Y-95850000I249600J0D01*
G01*
X143650400Y-95850000D01*
G75*
G02*
X143900000Y-96099600I0J-249600D01*
G01*
G37*
G04 #@! TD.AperFunction*
G04 #@! TA.AperFunction,SMDPad,CuDef*
G36*
G01*
X140950000Y-89600200D02*
X140950000Y-92999800D01*
G75*
G02*
X140699800Y-93250000I-250200J0D01*
G01*
X139400200Y-93250000D01*
G75*
G02*
X139150000Y-92999800I0J250200D01*
G01*
X139150000Y-89600200D01*
G75*
G02*
X139400200Y-89350000I250200J0D01*
G01*
X140699800Y-89350000D01*
G75*
G02*
X140950000Y-89600200I0J-250200D01*
G01*
G37*
G04 #@! TD.AperFunction*
G04 #@! TA.AperFunction,SMDPad,CuDef*
G36*
G01*
X159700000Y-115099800D02*
X159700000Y-111700200D01*
G75*
G02*
X159950200Y-111450000I250200J0D01*
G01*
X161249800Y-111450000D01*
G75*
G02*
X161500000Y-111700200I0J-250200D01*
G01*
X161500000Y-115099800D01*
G75*
G02*
X161249800Y-115350000I-250200J0D01*
G01*
X159950200Y-115350000D01*
G75*
G02*
X159700000Y-115099800I0J250200D01*
G01*
G37*
G04 #@! TD.AperFunction*
G04 #@! TA.AperFunction,SMDPad,CuDef*
G36*
G01*
X156750000Y-108600400D02*
X156750000Y-104599600D01*
G75*
G02*
X156999600Y-104350000I249600J0D01*
G01*
X157800400Y-104350000D01*
G75*
G02*
X158050000Y-104599600I0J-249600D01*
G01*
X158050000Y-108600400D01*
G75*
G02*
X157800400Y-108850000I-249600J0D01*
G01*
X156999600Y-108850000D01*
G75*
G02*
X156750000Y-108600400I0J249600D01*
G01*
G37*
G04 #@! TD.AperFunction*
G04 #@! TA.AperFunction,SMDPad,CuDef*
G36*
G01*
X154250000Y-108600400D02*
X154250000Y-104599600D01*
G75*
G02*
X154499600Y-104350000I249600J0D01*
G01*
X155300400Y-104350000D01*
G75*
G02*
X155550000Y-104599600I0J-249600D01*
G01*
X155550000Y-108600400D01*
G75*
G02*
X155300400Y-108850000I-249600J0D01*
G01*
X154499600Y-108850000D01*
G75*
G02*
X154250000Y-108600400I0J249600D01*
G01*
G37*
G04 #@! TD.AperFunction*
G04 #@! TA.AperFunction,SMDPad,CuDef*
G36*
G01*
X151750000Y-108600400D02*
X151750000Y-104599600D01*
G75*
G02*
X151999600Y-104350000I249600J0D01*
G01*
X152800400Y-104350000D01*
G75*
G02*
X153050000Y-104599600I0J-249600D01*
G01*
X153050000Y-108600400D01*
G75*
G02*
X152800400Y-108850000I-249600J0D01*
G01*
X151999600Y-108850000D01*
G75*
G02*
X151750000Y-108600400I0J249600D01*
G01*
G37*
G04 #@! TD.AperFunction*
G04 #@! TA.AperFunction,SMDPad,CuDef*
G36*
G01*
X148300000Y-115099800D02*
X148300000Y-111700200D01*
G75*
G02*
X148550200Y-111450000I250200J0D01*
G01*
X149849800Y-111450000D01*
G75*
G02*
X150100000Y-111700200I0J-250200D01*
G01*
X150100000Y-115099800D01*
G75*
G02*
X149849800Y-115350000I-250200J0D01*
G01*
X148550200Y-115350000D01*
G75*
G02*
X148300000Y-115099800I0J250200D01*
G01*
G37*
G04 #@! TD.AperFunction*
D10*
X151850000Y-98100000D02*
X148250000Y-98100000D01*
X157400000Y-103650000D02*
X151850000Y-98100000D01*
X157400000Y-106600000D02*
X157400000Y-103650000D01*
X139100000Y-106600000D02*
X152400000Y-106600000D01*
X139650000Y-98100000D02*
X143250000Y-98100000D01*
X134100000Y-103650000D02*
X139650000Y-98100000D01*
X134100000Y-106600000D02*
X134100000Y-103650000D01*
M02*
